<svg width="28" height="28" viewBox="0 0 28 28" fill="none" xmlns="http://www.w3.org/2000/svg">
<path d="M5.94984 18.7248C5.52206 17.9859 5.20123 17.2276 4.98734 16.4498C4.77345 15.6721 4.6665 14.8748 4.6665 14.0582C4.6665 11.4526 5.57067 9.23595 7.379 7.40817C9.18734 5.58039 11.3943 4.6665 13.9998 4.6665H14.204L12.3373 2.79984L13.9707 1.1665L18.6373 5.83317L13.9707 10.4998L12.3373 8.8665L14.204 6.99984H13.9998C12.0554 6.99984 10.4026 7.68525 9.0415 9.05609C7.68039 10.4269 6.99984 12.0943 6.99984 14.0582C6.99984 14.5637 7.05817 15.0596 7.17484 15.5457C7.2915 16.0318 7.4665 16.5082 7.69984 16.9748L5.94984 18.7248ZM14.029 26.8332L9.36234 22.1665L14.029 17.4998L15.6623 19.1332L13.7957 20.9998H13.9998C15.9443 20.9998 17.5971 20.3144 18.9582 18.9436C20.3193 17.5728 20.9998 15.9054 20.9998 13.9415C20.9998 13.4359 20.9415 12.9401 20.8248 12.454C20.7082 11.9679 20.5332 11.4915 20.2998 11.0248L22.0498 9.27484C22.4776 10.0137 22.7984 10.7721 23.0123 11.5498C23.2262 12.3276 23.3332 13.1248 23.3332 13.9415C23.3332 16.5471 22.429 18.7637 20.6207 20.5915C18.8123 22.4193 16.6054 23.3332 13.9998 23.3332H13.7957L15.6623 25.1998L14.029 26.8332Z" fill="#392F17"/>
</svg>
